# xmcd
#
# Track frame offsets: 
#        150
#        19179
#        41430
#        59003
#        77334
#        95379
#        116073
#        139274
#        155155
#        179669
#        191588
#        216143
#        235573
#        255666
#        273064
#        286863
#
# Disc length: 4042 seconds
#
# Revision: 1
# Processed by: cddbd v1.5.2PL0 Copyright (c) Steve Scherf et al.
# Submitted via: ExactAudioCopy v1.1
#
DISCID=df0fc810
DTITLE=Jimmy Burns - Back To The Delta
DYEAR=2003
DGENRE=Blues
TTITLE0=Back To The Delta
TTITLE1=Stop The Train
TTITLE2=Red Hot Mama
TTITLE3=Stranded In Clarksdale
TTITLE4=I Wanna Kiss You
TTITLE5=I Feel Like Going Home
TTITLE6=Country Boy In The City
TTITLE7=Groovin' With Jimmy
TTITLE8=Who's Been Using That Thing
TTITLE9=All About My Woman
TTITLE10=Nice And Easy
TTITLE11=Your're My Desire
TTITLE12=Someday Baby
TTITLE13=How Many More Year
TTITLE14=Yonder Comes Miss Rosey
TTITLE15=Juke Juke Juked
EXTD=YEAR: 2003
EXTT0=
EXTT1=
EXTT2=
EXTT3=
EXTT4=
EXTT5=
EXTT6=
EXTT7=
EXTT8=
EXTT9=
EXTT10=
EXTT11=
EXTT12=
EXTT13=
EXTT14=
EXTT15=
PLAYORDER=
